<?xml version="1.0" encoding="utf-8" standalone="no"?>
<!DOCTYPE svg PUBLIC "-//W3C//DTD SVG 1.1//EN"
  "http://www.w3.org/Graphics/SVG/1.1/DTD/svg11.dtd">
<svg xmlns:xlink="http://www.w3.org/1999/xlink" width="1152pt" height="720pt" viewBox="0 0 1152 720" xmlns="http://www.w3.org/2000/svg" version="1.1">
 <metadata>
  <rdf:RDF xmlns:dc="http://purl.org/dc/elements/1.1/" xmlns:cc="http://creativecommons.org/ns#" xmlns:rdf="http://www.w3.org/1999/02/22-rdf-syntax-ns#">
   <cc:Work>
    <dc:type rdf:resource="http://purl.org/dc/dcmitype/StillImage"/>
    <dc:date>2025-05-14T14:00:39.837920</dc:date>
    <dc:format>image/svg+xml</dc:format>
    <dc:creator>
     <cc:Agent>
      <dc:title>Matplotlib v3.6.3, https://matplotlib.org/</dc:title>
     </cc:Agent>
    </dc:creator>
   </cc:Work>
  </rdf:RDF>
 </metadata>
 <defs>
  <style type="text/css">*{stroke-linejoin: round; stroke-linecap: butt}</style>
 </defs>
 <g id="figure_1">
  <g id="patch_1">
   <path d="M 0 720 
L 1152 720 
L 1152 0 
L 0 0 
z
" style="fill: #ffffff"/>
  </g>
  <g id="axes_1">
   <g id="patch_2">
    <path d="M 144 640.8 
L 1036.8 640.8 
L 1036.8 86.4 
L 144 86.4 
z
" style="fill: #ffffff"/>
   </g>
   <g id="matplotlib.axis_1">
    <g id="xtick_1">
     <g id="line2d_1">
      <path d="M 144 640.8 
L 144 86.4 
" clip-path="url(#p959116c147)" style="fill: none; stroke-dasharray: 5.12,1.28,0.8,1.28; stroke-dashoffset: 0; stroke: #808080; stroke-width: 0.8"/>
     </g>
     <g id="line2d_2">
      <defs>
       <path id="m19ffbce925" d="M 0 0 
L 0 3.5 
" style="stroke: #000000; stroke-width: 0.8"/>
      </defs>
      <g>
       <use xlink:href="#m19ffbce925" x="144" y="640.8" style="stroke: #000000; stroke-width: 0.8"/>
      </g>
     </g>
     <g id="text_1">
      <!-- 0 -->
      <g transform="translate(140.81875 655.398438) scale(0.1 -0.1)">
       <defs>
        <path id="DejaVuSans-30" d="M 2034 4250 
Q 1547 4250 1301 3770 
Q 1056 3291 1056 2328 
Q 1056 1369 1301 889 
Q 1547 409 2034 409 
Q 2525 409 2770 889 
Q 3016 1369 3016 2328 
Q 3016 3291 2770 3770 
Q 2525 4250 2034 4250 
z
M 2034 4750 
Q 2819 4750 3233 4129 
Q 3647 3509 3647 2328 
Q 3647 1150 3233 529 
Q 2819 -91 2034 -91 
Q 1250 -91 836 529 
Q 422 1150 422 2328 
Q 422 3509 836 4129 
Q 1250 4750 2034 4750 
z
" transform="scale(0.015625)"/>
       </defs>
       <use xlink:href="#DejaVuSans-30"/>
      </g>
     </g>
    </g>
    <g id="xtick_2">
     <g id="line2d_3">
      <path d="M 292.554884 640.8 
L 292.554884 86.4 
" clip-path="url(#p959116c147)" style="fill: none; stroke-dasharray: 5.12,1.28,0.8,1.28; stroke-dashoffset: 0; stroke: #808080; stroke-width: 0.8"/>
     </g>
     <g id="line2d_4">
      <g>
       <use xlink:href="#m19ffbce925" x="292.554884" y="640.8" style="stroke: #000000; stroke-width: 0.8"/>
      </g>
     </g>
     <g id="text_2">
      <!-- 2 -->
      <g transform="translate(289.373634 655.398438) scale(0.1 -0.1)">
       <defs>
        <path id="DejaVuSans-32" d="M 1228 531 
L 3431 531 
L 3431 0 
L 469 0 
L 469 531 
Q 828 903 1448 1529 
Q 2069 2156 2228 2338 
Q 2531 2678 2651 2914 
Q 2772 3150 2772 3378 
Q 2772 3750 2511 3984 
Q 2250 4219 1831 4219 
Q 1534 4219 1204 4116 
Q 875 4013 500 3803 
L 500 4441 
Q 881 4594 1212 4672 
Q 1544 4750 1819 4750 
Q 2544 4750 2975 4387 
Q 3406 4025 3406 3419 
Q 3406 3131 3298 2873 
Q 3191 2616 2906 2266 
Q 2828 2175 2409 1742 
Q 1991 1309 1228 531 
z
" transform="scale(0.015625)"/>
       </defs>
       <use xlink:href="#DejaVuSans-32"/>
      </g>
     </g>
    </g>
    <g id="xtick_3">
     <g id="line2d_5">
      <path d="M 441.109769 640.8 
L 441.109769 86.4 
" clip-path="url(#p959116c147)" style="fill: none; stroke-dasharray: 5.12,1.28,0.8,1.28; stroke-dashoffset: 0; stroke: #808080; stroke-width: 0.8"/>
     </g>
     <g id="line2d_6">
      <g>
       <use xlink:href="#m19ffbce925" x="441.109769" y="640.8" style="stroke: #000000; stroke-width: 0.8"/>
      </g>
     </g>
     <g id="text_3">
      <!-- 4 -->
      <g transform="translate(437.928519 655.398438) scale(0.1 -0.1)">
       <defs>
        <path id="DejaVuSans-34" d="M 2419 4116 
L 825 1625 
L 2419 1625 
L 2419 4116 
z
M 2253 4666 
L 3047 4666 
L 3047 1625 
L 3713 1625 
L 3713 1100 
L 3047 1100 
L 3047 0 
L 2419 0 
L 2419 1100 
L 313 1100 
L 313 1709 
L 2253 4666 
z
" transform="scale(0.015625)"/>
       </defs>
       <use xlink:href="#DejaVuSans-34"/>
      </g>
     </g>
    </g>
    <g id="xtick_4">
     <g id="line2d_7">
      <path d="M 589.664653 640.8 
L 589.664653 86.4 
" clip-path="url(#p959116c147)" style="fill: none; stroke-dasharray: 5.12,1.28,0.8,1.28; stroke-dashoffset: 0; stroke: #808080; stroke-width: 0.8"/>
     </g>
     <g id="line2d_8">
      <g>
       <use xlink:href="#m19ffbce925" x="589.664653" y="640.8" style="stroke: #000000; stroke-width: 0.8"/>
      </g>
     </g>
     <g id="text_4">
      <!-- 6 -->
      <g transform="translate(586.483403 655.398438) scale(0.1 -0.1)">
       <defs>
        <path id="DejaVuSans-36" d="M 2113 2584 
Q 1688 2584 1439 2293 
Q 1191 2003 1191 1497 
Q 1191 994 1439 701 
Q 1688 409 2113 409 
Q 2538 409 2786 701 
Q 3034 994 3034 1497 
Q 3034 2003 2786 2293 
Q 2538 2584 2113 2584 
z
M 3366 4563 
L 3366 3988 
Q 3128 4100 2886 4159 
Q 2644 4219 2406 4219 
Q 1781 4219 1451 3797 
Q 1122 3375 1075 2522 
Q 1259 2794 1537 2939 
Q 1816 3084 2150 3084 
Q 2853 3084 3261 2657 
Q 3669 2231 3669 1497 
Q 3669 778 3244 343 
Q 2819 -91 2113 -91 
Q 1303 -91 875 529 
Q 447 1150 447 2328 
Q 447 3434 972 4092 
Q 1497 4750 2381 4750 
Q 2619 4750 2861 4703 
Q 3103 4656 3366 4563 
z
" transform="scale(0.015625)"/>
       </defs>
       <use xlink:href="#DejaVuSans-36"/>
      </g>
     </g>
    </g>
    <g id="xtick_5">
     <g id="line2d_9">
      <path d="M 738.219538 640.8 
L 738.219538 86.4 
" clip-path="url(#p959116c147)" style="fill: none; stroke-dasharray: 5.12,1.28,0.8,1.28; stroke-dashoffset: 0; stroke: #808080; stroke-width: 0.8"/>
     </g>
     <g id="line2d_10">
      <g>
       <use xlink:href="#m19ffbce925" x="738.219538" y="640.8" style="stroke: #000000; stroke-width: 0.8"/>
      </g>
     </g>
     <g id="text_5">
      <!-- 8 -->
      <g transform="translate(735.038288 655.398438) scale(0.1 -0.1)">
       <defs>
        <path id="DejaVuSans-38" d="M 2034 2216 
Q 1584 2216 1326 1975 
Q 1069 1734 1069 1313 
Q 1069 891 1326 650 
Q 1584 409 2034 409 
Q 2484 409 2743 651 
Q 3003 894 3003 1313 
Q 3003 1734 2745 1975 
Q 2488 2216 2034 2216 
z
M 1403 2484 
Q 997 2584 770 2862 
Q 544 3141 544 3541 
Q 544 4100 942 4425 
Q 1341 4750 2034 4750 
Q 2731 4750 3128 4425 
Q 3525 4100 3525 3541 
Q 3525 3141 3298 2862 
Q 3072 2584 2669 2484 
Q 3125 2378 3379 2068 
Q 3634 1759 3634 1313 
Q 3634 634 3220 271 
Q 2806 -91 2034 -91 
Q 1263 -91 848 271 
Q 434 634 434 1313 
Q 434 1759 690 2068 
Q 947 2378 1403 2484 
z
M 1172 3481 
Q 1172 3119 1398 2916 
Q 1625 2713 2034 2713 
Q 2441 2713 2670 2916 
Q 2900 3119 2900 3481 
Q 2900 3844 2670 4047 
Q 2441 4250 2034 4250 
Q 1625 4250 1398 4047 
Q 1172 3844 1172 3481 
z
" transform="scale(0.015625)"/>
       </defs>
       <use xlink:href="#DejaVuSans-38"/>
      </g>
     </g>
    </g>
    <g id="xtick_6">
     <g id="line2d_11">
      <path d="M 886.774422 640.8 
L 886.774422 86.4 
" clip-path="url(#p959116c147)" style="fill: none; stroke-dasharray: 5.12,1.28,0.8,1.28; stroke-dashoffset: 0; stroke: #808080; stroke-width: 0.8"/>
     </g>
     <g id="line2d_12">
      <g>
       <use xlink:href="#m19ffbce925" x="886.774422" y="640.8" style="stroke: #000000; stroke-width: 0.8"/>
      </g>
     </g>
     <g id="text_6">
      <!-- 10 -->
      <g transform="translate(880.411922 655.398438) scale(0.1 -0.1)">
       <defs>
        <path id="DejaVuSans-31" d="M 794 531 
L 1825 531 
L 1825 4091 
L 703 3866 
L 703 4441 
L 1819 4666 
L 2450 4666 
L 2450 531 
L 3481 531 
L 3481 0 
L 794 0 
L 794 531 
z
" transform="scale(0.015625)"/>
       </defs>
       <use xlink:href="#DejaVuSans-31"/>
       <use xlink:href="#DejaVuSans-30" x="63.623047"/>
      </g>
     </g>
    </g>
    <g id="xtick_7">
     <g id="line2d_13">
      <path d="M 1035.329307 640.8 
L 1035.329307 86.4 
" clip-path="url(#p959116c147)" style="fill: none; stroke-dasharray: 5.12,1.28,0.8,1.28; stroke-dashoffset: 0; stroke: #808080; stroke-width: 0.8"/>
     </g>
     <g id="line2d_14">
      <g>
       <use xlink:href="#m19ffbce925" x="1035.329307" y="640.8" style="stroke: #000000; stroke-width: 0.8"/>
      </g>
     </g>
     <g id="text_7">
      <!-- 12 -->
      <g transform="translate(1028.966807 655.398438) scale(0.1 -0.1)">
       <use xlink:href="#DejaVuSans-31"/>
       <use xlink:href="#DejaVuSans-32" x="63.623047"/>
      </g>
     </g>
    </g>
    <g id="xtick_8">
     <g id="line2d_15">
      <path d="M 218.277442 640.8 
L 218.277442 86.4 
" clip-path="url(#p959116c147)" style="fill: none; stroke-dasharray: 5.12,1.28,0.8,1.28; stroke-dashoffset: 0; stroke: #808080; stroke-width: 0.8"/>
     </g>
     <g id="line2d_16">
      <defs>
       <path id="m05536f1afc" d="M 0 0 
L 0 2 
" style="stroke: #000000; stroke-width: 0.6"/>
      </defs>
      <g>
       <use xlink:href="#m05536f1afc" x="218.277442" y="640.8" style="stroke: #000000; stroke-width: 0.6"/>
      </g>
     </g>
    </g>
    <g id="xtick_9">
     <g id="line2d_17">
      <path d="M 366.832327 640.8 
L 366.832327 86.4 
" clip-path="url(#p959116c147)" style="fill: none; stroke-dasharray: 5.12,1.28,0.8,1.28; stroke-dashoffset: 0; stroke: #808080; stroke-width: 0.8"/>
     </g>
     <g id="line2d_18">
      <g>
       <use xlink:href="#m05536f1afc" x="366.832327" y="640.8" style="stroke: #000000; stroke-width: 0.6"/>
      </g>
     </g>
    </g>
    <g id="xtick_10">
     <g id="line2d_19">
      <path d="M 515.387211 640.8 
L 515.387211 86.4 
" clip-path="url(#p959116c147)" style="fill: none; stroke-dasharray: 5.12,1.28,0.8,1.28; stroke-dashoffset: 0; stroke: #808080; stroke-width: 0.8"/>
     </g>
     <g id="line2d_20">
      <g>
       <use xlink:href="#m05536f1afc" x="515.387211" y="640.8" style="stroke: #000000; stroke-width: 0.6"/>
      </g>
     </g>
    </g>
    <g id="xtick_11">
     <g id="line2d_21">
      <path d="M 663.942096 640.8 
L 663.942096 86.4 
" clip-path="url(#p959116c147)" style="fill: none; stroke-dasharray: 5.12,1.28,0.8,1.28; stroke-dashoffset: 0; stroke: #808080; stroke-width: 0.8"/>
     </g>
     <g id="line2d_22">
      <g>
       <use xlink:href="#m05536f1afc" x="663.942096" y="640.8" style="stroke: #000000; stroke-width: 0.6"/>
      </g>
     </g>
    </g>
    <g id="xtick_12">
     <g id="line2d_23">
      <path d="M 812.49698 640.8 
L 812.49698 86.4 
" clip-path="url(#p959116c147)" style="fill: none; stroke-dasharray: 5.12,1.28,0.8,1.28; stroke-dashoffset: 0; stroke: #808080; stroke-width: 0.8"/>
     </g>
     <g id="line2d_24">
      <g>
       <use xlink:href="#m05536f1afc" x="812.49698" y="640.8" style="stroke: #000000; stroke-width: 0.6"/>
      </g>
     </g>
    </g>
    <g id="xtick_13">
     <g id="line2d_25">
      <path d="M 961.051864 640.8 
L 961.051864 86.4 
" clip-path="url(#p959116c147)" style="fill: none; stroke-dasharray: 5.12,1.28,0.8,1.28; stroke-dashoffset: 0; stroke: #808080; stroke-width: 0.8"/>
     </g>
     <g id="line2d_26">
      <g>
       <use xlink:href="#m05536f1afc" x="961.051864" y="640.8" style="stroke: #000000; stroke-width: 0.6"/>
      </g>
     </g>
    </g>
    <g id="text_8">
     <!-- Время, с -->
     <g transform="translate(554.57875 673.635625) scale(0.16 -0.16)">
      <defs>
       <path id="DejaVuSans-412" d="M 1259 2228 
L 1259 519 
L 2272 519 
Q 2781 519 3026 730 
Q 3272 941 3272 1375 
Q 3272 1813 3026 2020 
Q 2781 2228 2272 2228 
L 1259 2228 
z
M 1259 4147 
L 1259 2741 
L 2194 2741 
Q 2656 2741 2882 2914 
Q 3109 3088 3109 3444 
Q 3109 3797 2882 3972 
Q 2656 4147 2194 4147 
L 1259 4147 
z
M 628 4666 
L 2241 4666 
Q 2963 4666 3353 4366 
Q 3744 4066 3744 3513 
Q 3744 3084 3544 2831 
Q 3344 2578 2956 2516 
Q 3422 2416 3680 2098 
Q 3938 1781 3938 1306 
Q 3938 681 3513 340 
Q 3088 0 2303 0 
L 628 0 
L 628 4666 
z
" transform="scale(0.015625)"/>
       <path id="DejaVuSans-440" d="M 1159 525 
L 1159 -1331 
L 581 -1331 
L 581 3500 
L 1159 3500 
L 1159 2969 
Q 1341 3281 1617 3432 
Q 1894 3584 2278 3584 
Q 2916 3584 3314 3078 
Q 3713 2572 3713 1747 
Q 3713 922 3314 415 
Q 2916 -91 2278 -91 
Q 1894 -91 1617 61 
Q 1341 213 1159 525 
z
M 3116 1747 
Q 3116 2381 2855 2742 
Q 2594 3103 2138 3103 
Q 1681 3103 1420 2742 
Q 1159 2381 1159 1747 
Q 1159 1113 1420 752 
Q 1681 391 2138 391 
Q 2594 391 2855 752 
Q 3116 1113 3116 1747 
z
" transform="scale(0.015625)"/>
       <path id="DejaVuSans-435" d="M 3597 1894 
L 3597 1613 
L 953 1613 
Q 991 1019 1311 708 
Q 1631 397 2203 397 
Q 2534 397 2845 478 
Q 3156 559 3463 722 
L 3463 178 
Q 3153 47 2828 -22 
Q 2503 -91 2169 -91 
Q 1331 -91 842 396 
Q 353 884 353 1716 
Q 353 2575 817 3079 
Q 1281 3584 2069 3584 
Q 2775 3584 3186 3129 
Q 3597 2675 3597 1894 
z
M 3022 2063 
Q 3016 2534 2758 2815 
Q 2500 3097 2075 3097 
Q 1594 3097 1305 2825 
Q 1016 2553 972 2059 
L 3022 2063 
z
" transform="scale(0.015625)"/>
       <path id="DejaVuSans-43c" d="M 581 3500 
L 1422 3500 
L 2416 1156 
L 3413 3500 
L 4247 3500 
L 4247 0 
L 3669 0 
L 3669 2950 
L 2703 672 
L 2128 672 
L 1159 2950 
L 1159 0 
L 581 0 
L 581 3500 
z
" transform="scale(0.015625)"/>
       <path id="DejaVuSans-44f" d="M 1181 2491 
Q 1181 2231 1381 2084 
Q 1581 1938 1953 1938 
L 2728 1938 
L 2728 3041 
L 1953 3041 
Q 1581 3041 1381 2897 
Q 1181 2753 1181 2491 
z
M 363 0 
L 1431 1534 
Q 1069 1616 828 1830 
Q 588 2044 588 2491 
Q 588 2997 923 3248 
Q 1259 3500 1938 3500 
L 3306 3500 
L 3306 0 
L 2728 0 
L 2728 1478 
L 2013 1478 
L 981 0 
L 363 0 
z
" transform="scale(0.015625)"/>
       <path id="DejaVuSans-2c" d="M 750 794 
L 1409 794 
L 1409 256 
L 897 -744 
L 494 -744 
L 750 256 
L 750 794 
z
" transform="scale(0.015625)"/>
       <path id="DejaVuSans-20" transform="scale(0.015625)"/>
       <path id="DejaVuSans-441" d="M 3122 3366 
L 3122 2828 
Q 2878 2963 2633 3030 
Q 2388 3097 2138 3097 
Q 1578 3097 1268 2742 
Q 959 2388 959 1747 
Q 959 1106 1268 751 
Q 1578 397 2138 397 
Q 2388 397 2633 464 
Q 2878 531 3122 666 
L 3122 134 
Q 2881 22 2623 -34 
Q 2366 -91 2075 -91 
Q 1284 -91 818 406 
Q 353 903 353 1747 
Q 353 2603 823 3093 
Q 1294 3584 2113 3584 
Q 2378 3584 2631 3529 
Q 2884 3475 3122 3366 
z
" transform="scale(0.015625)"/>
      </defs>
      <use xlink:href="#DejaVuSans-412"/>
      <use xlink:href="#DejaVuSans-440" x="68.603516"/>
      <use xlink:href="#DejaVuSans-435" x="132.080078"/>
      <use xlink:href="#DejaVuSans-43c" x="193.603516"/>
      <use xlink:href="#DejaVuSans-44f" x="269.042969"/>
      <use xlink:href="#DejaVuSans-2c" x="329.199219"/>
      <use xlink:href="#DejaVuSans-20" x="360.986328"/>
      <use xlink:href="#DejaVuSans-441" x="392.773438"/>
     </g>
    </g>
   </g>
   <g id="matplotlib.axis_2">
    <g id="ytick_1">
     <g id="line2d_27">
      <path d="M 144 547.509704 
L 1036.8 547.509704 
" clip-path="url(#p959116c147)" style="fill: none; stroke-dasharray: 5.12,1.28,0.8,1.28; stroke-dashoffset: 0; stroke: #808080; stroke-width: 0.8"/>
     </g>
     <g id="line2d_28">
      <defs>
       <path id="md86796c80c" d="M 0 0 
L -3.5 0 
" style="stroke: #000000; stroke-width: 0.8"/>
      </defs>
      <g>
       <use xlink:href="#md86796c80c" x="144" y="547.509704" style="stroke: #000000; stroke-width: 0.8"/>
      </g>
     </g>
     <g id="text_9">
      <!-- 0.5 -->
      <g transform="translate(121.096875 551.308923) scale(0.1 -0.1)">
       <defs>
        <path id="DejaVuSans-2e" d="M 684 794 
L 1344 794 
L 1344 0 
L 684 0 
L 684 794 
z
" transform="scale(0.015625)"/>
        <path id="DejaVuSans-35" d="M 691 4666 
L 3169 4666 
L 3169 4134 
L 1269 4134 
L 1269 2991 
Q 1406 3038 1543 3061 
Q 1681 3084 1819 3084 
Q 2600 3084 3056 2656 
Q 3513 2228 3513 1497 
Q 3513 744 3044 326 
Q 2575 -91 1722 -91 
Q 1428 -91 1123 -41 
Q 819 9 494 109 
L 494 744 
Q 775 591 1075 516 
Q 1375 441 1709 441 
Q 2250 441 2565 725 
Q 2881 1009 2881 1497 
Q 2881 1984 2565 2268 
Q 2250 2553 1709 2553 
Q 1456 2553 1204 2497 
Q 953 2441 691 2322 
L 691 4666 
z
" transform="scale(0.015625)"/>
       </defs>
       <use xlink:href="#DejaVuSans-30"/>
       <use xlink:href="#DejaVuSans-2e" x="63.623047"/>
       <use xlink:href="#DejaVuSans-35" x="95.410156"/>
      </g>
     </g>
    </g>
    <g id="ytick_2">
     <g id="line2d_29">
      <path d="M 144 452.120853 
L 1036.8 452.120853 
" clip-path="url(#p959116c147)" style="fill: none; stroke-dasharray: 5.12,1.28,0.8,1.28; stroke-dashoffset: 0; stroke: #808080; stroke-width: 0.8"/>
     </g>
     <g id="line2d_30">
      <g>
       <use xlink:href="#md86796c80c" x="144" y="452.120853" style="stroke: #000000; stroke-width: 0.8"/>
      </g>
     </g>
     <g id="text_10">
      <!-- 1.0 -->
      <g transform="translate(121.096875 455.920072) scale(0.1 -0.1)">
       <use xlink:href="#DejaVuSans-31"/>
       <use xlink:href="#DejaVuSans-2e" x="63.623047"/>
       <use xlink:href="#DejaVuSans-30" x="95.410156"/>
      </g>
     </g>
    </g>
    <g id="ytick_3">
     <g id="line2d_31">
      <path d="M 144 356.732003 
L 1036.8 356.732003 
" clip-path="url(#p959116c147)" style="fill: none; stroke-dasharray: 5.12,1.28,0.8,1.28; stroke-dashoffset: 0; stroke: #808080; stroke-width: 0.8"/>
     </g>
     <g id="line2d_32">
      <g>
       <use xlink:href="#md86796c80c" x="144" y="356.732003" style="stroke: #000000; stroke-width: 0.8"/>
      </g>
     </g>
     <g id="text_11">
      <!-- 1.5 -->
      <g transform="translate(121.096875 360.531222) scale(0.1 -0.1)">
       <use xlink:href="#DejaVuSans-31"/>
       <use xlink:href="#DejaVuSans-2e" x="63.623047"/>
       <use xlink:href="#DejaVuSans-35" x="95.410156"/>
      </g>
     </g>
    </g>
    <g id="ytick_4">
     <g id="line2d_33">
      <path d="M 144 261.343152 
L 1036.8 261.343152 
" clip-path="url(#p959116c147)" style="fill: none; stroke-dasharray: 5.12,1.28,0.8,1.28; stroke-dashoffset: 0; stroke: #808080; stroke-width: 0.8"/>
     </g>
     <g id="line2d_34">
      <g>
       <use xlink:href="#md86796c80c" x="144" y="261.343152" style="stroke: #000000; stroke-width: 0.8"/>
      </g>
     </g>
     <g id="text_12">
      <!-- 2.0 -->
      <g transform="translate(121.096875 265.142371) scale(0.1 -0.1)">
       <use xlink:href="#DejaVuSans-32"/>
       <use xlink:href="#DejaVuSans-2e" x="63.623047"/>
       <use xlink:href="#DejaVuSans-30" x="95.410156"/>
      </g>
     </g>
    </g>
    <g id="ytick_5">
     <g id="line2d_35">
      <path d="M 144 165.954301 
L 1036.8 165.954301 
" clip-path="url(#p959116c147)" style="fill: none; stroke-dasharray: 5.12,1.28,0.8,1.28; stroke-dashoffset: 0; stroke: #808080; stroke-width: 0.8"/>
     </g>
     <g id="line2d_36">
      <g>
       <use xlink:href="#md86796c80c" x="144" y="165.954301" style="stroke: #000000; stroke-width: 0.8"/>
      </g>
     </g>
     <g id="text_13">
      <!-- 2.5 -->
      <g transform="translate(121.096875 169.75352) scale(0.1 -0.1)">
       <use xlink:href="#DejaVuSans-32"/>
       <use xlink:href="#DejaVuSans-2e" x="63.623047"/>
       <use xlink:href="#DejaVuSans-35" x="95.410156"/>
      </g>
     </g>
    </g>
    <g id="ytick_6">
     <g id="line2d_37">
      <path d="M 144 619.051342 
L 1036.8 619.051342 
" clip-path="url(#p959116c147)" style="fill: none; stroke-dasharray: 5.12,1.28,0.8,1.28; stroke-dashoffset: 0; stroke: #808080; stroke-width: 0.8"/>
     </g>
     <g id="line2d_38">
      <defs>
       <path id="m618f3d1c90" d="M 0 0 
L -2 0 
" style="stroke: #000000; stroke-width: 0.6"/>
      </defs>
      <g>
       <use xlink:href="#m618f3d1c90" x="144" y="619.051342" style="stroke: #000000; stroke-width: 0.6"/>
      </g>
     </g>
    </g>
    <g id="ytick_7">
     <g id="line2d_39">
      <path d="M 144 595.204129 
L 1036.8 595.204129 
" clip-path="url(#p959116c147)" style="fill: none; stroke-dasharray: 5.12,1.28,0.8,1.28; stroke-dashoffset: 0; stroke: #808080; stroke-width: 0.8"/>
     </g>
     <g id="line2d_40">
      <g>
       <use xlink:href="#m618f3d1c90" x="144" y="595.204129" style="stroke: #000000; stroke-width: 0.6"/>
      </g>
     </g>
    </g>
    <g id="ytick_8">
     <g id="line2d_41">
      <path d="M 144 571.356917 
L 1036.8 571.356917 
" clip-path="url(#p959116c147)" style="fill: none; stroke-dasharray: 5.12,1.28,0.8,1.28; stroke-dashoffset: 0; stroke: #808080; stroke-width: 0.8"/>
     </g>
     <g id="line2d_42">
      <g>
       <use xlink:href="#m618f3d1c90" x="144" y="571.356917" style="stroke: #000000; stroke-width: 0.6"/>
      </g>
     </g>
    </g>
    <g id="ytick_9">
     <g id="line2d_43">
      <path d="M 144 523.662491 
L 1036.8 523.662491 
" clip-path="url(#p959116c147)" style="fill: none; stroke-dasharray: 5.12,1.28,0.8,1.28; stroke-dashoffset: 0; stroke: #808080; stroke-width: 0.8"/>
     </g>
     <g id="line2d_44">
      <g>
       <use xlink:href="#m618f3d1c90" x="144" y="523.662491" style="stroke: #000000; stroke-width: 0.6"/>
      </g>
     </g>
    </g>
    <g id="ytick_10">
     <g id="line2d_45">
      <path d="M 144 499.815279 
L 1036.8 499.815279 
" clip-path="url(#p959116c147)" style="fill: none; stroke-dasharray: 5.12,1.28,0.8,1.28; stroke-dashoffset: 0; stroke: #808080; stroke-width: 0.8"/>
     </g>
     <g id="line2d_46">
      <g>
       <use xlink:href="#m618f3d1c90" x="144" y="499.815279" style="stroke: #000000; stroke-width: 0.6"/>
      </g>
     </g>
    </g>
    <g id="ytick_11">
     <g id="line2d_47">
      <path d="M 144 475.968066 
L 1036.8 475.968066 
" clip-path="url(#p959116c147)" style="fill: none; stroke-dasharray: 5.12,1.28,0.8,1.28; stroke-dashoffset: 0; stroke: #808080; stroke-width: 0.8"/>
     </g>
     <g id="line2d_48">
      <g>
       <use xlink:href="#m618f3d1c90" x="144" y="475.968066" style="stroke: #000000; stroke-width: 0.6"/>
      </g>
     </g>
    </g>
    <g id="ytick_12">
     <g id="line2d_49">
      <path d="M 144 428.273641 
L 1036.8 428.273641 
" clip-path="url(#p959116c147)" style="fill: none; stroke-dasharray: 5.12,1.28,0.8,1.28; stroke-dashoffset: 0; stroke: #808080; stroke-width: 0.8"/>
     </g>
     <g id="line2d_50">
      <g>
       <use xlink:href="#m618f3d1c90" x="144" y="428.273641" style="stroke: #000000; stroke-width: 0.6"/>
      </g>
     </g>
    </g>
    <g id="ytick_13">
     <g id="line2d_51">
      <path d="M 144 404.426428 
L 1036.8 404.426428 
" clip-path="url(#p959116c147)" style="fill: none; stroke-dasharray: 5.12,1.28,0.8,1.28; stroke-dashoffset: 0; stroke: #808080; stroke-width: 0.8"/>
     </g>
     <g id="line2d_52">
      <g>
       <use xlink:href="#m618f3d1c90" x="144" y="404.426428" style="stroke: #000000; stroke-width: 0.6"/>
      </g>
     </g>
    </g>
    <g id="ytick_14">
     <g id="line2d_53">
      <path d="M 144 380.579215 
L 1036.8 380.579215 
" clip-path="url(#p959116c147)" style="fill: none; stroke-dasharray: 5.12,1.28,0.8,1.28; stroke-dashoffset: 0; stroke: #808080; stroke-width: 0.8"/>
     </g>
     <g id="line2d_54">
      <g>
       <use xlink:href="#m618f3d1c90" x="144" y="380.579215" style="stroke: #000000; stroke-width: 0.6"/>
      </g>
     </g>
    </g>
    <g id="ytick_15">
     <g id="line2d_55">
      <path d="M 144 332.88479 
L 1036.8 332.88479 
" clip-path="url(#p959116c147)" style="fill: none; stroke-dasharray: 5.12,1.28,0.8,1.28; stroke-dashoffset: 0; stroke: #808080; stroke-width: 0.8"/>
     </g>
     <g id="line2d_56">
      <g>
       <use xlink:href="#m618f3d1c90" x="144" y="332.88479" style="stroke: #000000; stroke-width: 0.6"/>
      </g>
     </g>
    </g>
    <g id="ytick_16">
     <g id="line2d_57">
      <path d="M 144 309.037577 
L 1036.8 309.037577 
" clip-path="url(#p959116c147)" style="fill: none; stroke-dasharray: 5.12,1.28,0.8,1.28; stroke-dashoffset: 0; stroke: #808080; stroke-width: 0.8"/>
     </g>
     <g id="line2d_58">
      <g>
       <use xlink:href="#m618f3d1c90" x="144" y="309.037577" style="stroke: #000000; stroke-width: 0.6"/>
      </g>
     </g>
    </g>
    <g id="ytick_17">
     <g id="line2d_59">
      <path d="M 144 285.190365 
L 1036.8 285.190365 
" clip-path="url(#p959116c147)" style="fill: none; stroke-dasharray: 5.12,1.28,0.8,1.28; stroke-dashoffset: 0; stroke: #808080; stroke-width: 0.8"/>
     </g>
     <g id="line2d_60">
      <g>
       <use xlink:href="#m618f3d1c90" x="144" y="285.190365" style="stroke: #000000; stroke-width: 0.6"/>
      </g>
     </g>
    </g>
    <g id="ytick_18">
     <g id="line2d_61">
      <path d="M 144 237.495939 
L 1036.8 237.495939 
" clip-path="url(#p959116c147)" style="fill: none; stroke-dasharray: 5.12,1.28,0.8,1.28; stroke-dashoffset: 0; stroke: #808080; stroke-width: 0.8"/>
     </g>
     <g id="line2d_62">
      <g>
       <use xlink:href="#m618f3d1c90" x="144" y="237.495939" style="stroke: #000000; stroke-width: 0.6"/>
      </g>
     </g>
    </g>
    <g id="ytick_19">
     <g id="line2d_63">
      <path d="M 144 213.648727 
L 1036.8 213.648727 
" clip-path="url(#p959116c147)" style="fill: none; stroke-dasharray: 5.12,1.28,0.8,1.28; stroke-dashoffset: 0; stroke: #808080; stroke-width: 0.8"/>
     </g>
     <g id="line2d_64">
      <g>
       <use xlink:href="#m618f3d1c90" x="144" y="213.648727" style="stroke: #000000; stroke-width: 0.6"/>
      </g>
     </g>
    </g>
    <g id="ytick_20">
     <g id="line2d_65">
      <path d="M 144 189.801514 
L 1036.8 189.801514 
" clip-path="url(#p959116c147)" style="fill: none; stroke-dasharray: 5.12,1.28,0.8,1.28; stroke-dashoffset: 0; stroke: #808080; stroke-width: 0.8"/>
     </g>
     <g id="line2d_66">
      <g>
       <use xlink:href="#m618f3d1c90" x="144" y="189.801514" style="stroke: #000000; stroke-width: 0.6"/>
      </g>
     </g>
    </g>
    <g id="ytick_21">
     <g id="line2d_67">
      <path d="M 144 142.107089 
L 1036.8 142.107089 
" clip-path="url(#p959116c147)" style="fill: none; stroke-dasharray: 5.12,1.28,0.8,1.28; stroke-dashoffset: 0; stroke: #808080; stroke-width: 0.8"/>
     </g>
     <g id="line2d_68">
      <g>
       <use xlink:href="#m618f3d1c90" x="144" y="142.107089" style="stroke: #000000; stroke-width: 0.6"/>
      </g>
     </g>
    </g>
    <g id="ytick_22">
     <g id="line2d_69">
      <path d="M 144 118.259876 
L 1036.8 118.259876 
" clip-path="url(#p959116c147)" style="fill: none; stroke-dasharray: 5.12,1.28,0.8,1.28; stroke-dashoffset: 0; stroke: #808080; stroke-width: 0.8"/>
     </g>
     <g id="line2d_70">
      <g>
       <use xlink:href="#m618f3d1c90" x="144" y="118.259876" style="stroke: #000000; stroke-width: 0.6"/>
      </g>
     </g>
    </g>
    <g id="ytick_23">
     <g id="line2d_71">
      <path d="M 144 94.412663 
L 1036.8 94.412663 
" clip-path="url(#p959116c147)" style="fill: none; stroke-dasharray: 5.12,1.28,0.8,1.28; stroke-dashoffset: 0; stroke: #808080; stroke-width: 0.8"/>
     </g>
     <g id="line2d_72">
      <g>
       <use xlink:href="#m618f3d1c90" x="144" y="94.412663" style="stroke: #000000; stroke-width: 0.6"/>
      </g>
     </g>
    </g>
    <g id="text_14">
     <!-- Напряжение, В -->
     <g transform="translate(113.769375 427.695) rotate(-90) scale(0.16 -0.16)">
      <defs>
       <path id="DejaVuSans-41d" d="M 628 4666 
L 1259 4666 
L 1259 2753 
L 3553 2753 
L 3553 4666 
L 4184 4666 
L 4184 0 
L 3553 0 
L 3553 2222 
L 1259 2222 
L 1259 0 
L 628 0 
L 628 4666 
z
" transform="scale(0.015625)"/>
       <path id="DejaVuSans-430" d="M 2194 1759 
Q 1497 1759 1228 1600 
Q 959 1441 959 1056 
Q 959 750 1161 570 
Q 1363 391 1709 391 
Q 2188 391 2477 730 
Q 2766 1069 2766 1631 
L 2766 1759 
L 2194 1759 
z
M 3341 1997 
L 3341 0 
L 2766 0 
L 2766 531 
Q 2569 213 2275 61 
Q 1981 -91 1556 -91 
Q 1019 -91 701 211 
Q 384 513 384 1019 
Q 384 1609 779 1909 
Q 1175 2209 1959 2209 
L 2766 2209 
L 2766 2266 
Q 2766 2663 2505 2880 
Q 2244 3097 1772 3097 
Q 1472 3097 1187 3025 
Q 903 2953 641 2809 
L 641 3341 
Q 956 3463 1253 3523 
Q 1550 3584 1831 3584 
Q 2591 3584 2966 3190 
Q 3341 2797 3341 1997 
z
" transform="scale(0.015625)"/>
       <path id="DejaVuSans-43f" d="M 3603 3500 
L 3603 0 
L 3025 0 
L 3025 3041 
L 1159 3041 
L 1159 0 
L 581 0 
L 581 3500 
L 3603 3500 
z
" transform="scale(0.015625)"/>
       <path id="DejaVuSans-436" d="M 2597 3500 
L 3169 3500 
L 3169 1856 
L 4697 3500 
L 5366 3500 
L 4109 2153 
L 5547 0 
L 4931 0 
L 3753 1769 
L 3169 1141 
L 3169 0 
L 2597 0 
L 2597 1141 
L 2013 1769 
L 834 0 
L 219 0 
L 1656 2153 
L 400 3500 
L 1069 3500 
L 2597 1856 
L 2597 3500 
z
" transform="scale(0.015625)"/>
       <path id="DejaVuSans-43d" d="M 581 3500 
L 1159 3500 
L 1159 2072 
L 3025 2072 
L 3025 3500 
L 3603 3500 
L 3603 0 
L 3025 0 
L 3025 1613 
L 1159 1613 
L 1159 0 
L 581 0 
L 581 3500 
z
" transform="scale(0.015625)"/>
       <path id="DejaVuSans-438" d="M 3578 3500 
L 3578 0 
L 3006 0 
L 3006 2809 
L 1319 0 
L 581 0 
L 581 3500 
L 1153 3500 
L 1153 697 
L 2838 3500 
L 3578 3500 
z
" transform="scale(0.015625)"/>
      </defs>
      <use xlink:href="#DejaVuSans-41d"/>
      <use xlink:href="#DejaVuSans-430" x="75.195312"/>
      <use xlink:href="#DejaVuSans-43f" x="136.474609"/>
      <use xlink:href="#DejaVuSans-440" x="201.855469"/>
      <use xlink:href="#DejaVuSans-44f" x="265.332031"/>
      <use xlink:href="#DejaVuSans-436" x="325.488281"/>
      <use xlink:href="#DejaVuSans-435" x="415.576172"/>
      <use xlink:href="#DejaVuSans-43d" x="477.099609"/>
      <use xlink:href="#DejaVuSans-438" x="542.480469"/>
      <use xlink:href="#DejaVuSans-435" x="607.470703"/>
      <use xlink:href="#DejaVuSans-2c" x="668.994141"/>
      <use xlink:href="#DejaVuSans-20" x="700.78125"/>
      <use xlink:href="#DejaVuSans-412" x="732.568359"/>
     </g>
    </g>
   </g>
   <g id="line2d_73">
    <path d="M 144 640.8 
L 144.995318 632.405781 
L 147.981271 619.814453 
L 148.976589 611.420234 
L 150.967224 603.026015 
L 151.962542 594.631796 
L 152.95786 594.631796 
L 153.953177 586.237577 
L 154.948495 586.237577 
L 155.943813 577.843359 
L 156.93913 577.843359 
L 157.934448 565.25203 
L 170.873579 510.689608 
L 171.868896 510.689608 
L 172.864214 502.295389 
L 176.845485 485.506951 
L 177.840803 485.506951 
L 178.83612 477.112732 
L 179.831438 477.112732 
L 187.79398 443.535857 
L 188.789298 443.535857 
L 192.770569 426.747419 
L 193.765886 426.747419 
L 197.747157 409.958981 
L 198.742475 409.958981 
L 200.73311 401.564763 
L 201.728428 401.564763 
L 203.719064 393.170544 
L 204.714381 393.170544 
L 206.705017 384.776325 
L 207.700334 384.776325 
L 209.69097 376.382106 
L 211.681605 376.382106 
L 212.676923 367.987887 
L 213.672241 367.987887 
L 214.667559 363.790778 
L 215.662876 363.790778 
L 217.653512 355.396559 
L 218.648829 355.396559 
L 219.644147 351.199449 
L 220.639465 351.199449 
L 222.6301 342.805231 
L 224.620736 342.805231 
L 226.611371 334.411012 
L 228.602007 334.411012 
L 230.592642 326.016793 
L 231.58796 326.016793 
L 232.583278 321.819683 
L 233.578595 321.819683 
L 234.573913 317.622574 
L 235.569231 317.622574 
L 236.564548 313.425465 
L 237.559866 313.425465 
L 238.555184 309.228355 
L 241.541137 309.228355 
L 242.536455 300.834136 
L 244.52709 300.834136 
L 245.522408 296.637027 
L 246.517726 296.637027 
L 247.513043 292.439917 
L 249.503679 292.439917 
L 250.498997 288.242808 
L 251.494314 288.242808 
L 252.489632 284.045699 
L 253.48495 284.045699 
L 254.480268 279.848589 
L 257.466221 279.848589 
L 259.456856 271.45437 
L 261.447492 271.45437 
L 262.442809 267.257261 
L 264.433445 267.257261 
L 265.428763 263.060151 
L 266.42408 263.060151 
L 267.419398 258.863042 
L 270.405351 258.863042 
L 271.400669 254.665933 
L 272.395987 254.665933 
L 273.391304 250.468823 
L 275.38194 250.468823 
L 276.377258 246.271714 
L 279.363211 246.271714 
L 281.353846 237.877495 
L 287.325753 237.877495 
L 289.316388 229.483276 
L 293.297659 229.483276 
L 294.292977 225.286167 
L 297.27893 225.286167 
L 298.274247 221.089057 
L 300.264883 221.089057 
L 301.260201 216.891948 
L 303.250836 216.891948 
L 304.246154 212.694838 
L 308.227425 212.694838 
L 309.222742 208.497729 
L 313.204013 208.497729 
L 314.199331 204.300619 
L 318.180602 204.300619 
L 319.17592 200.10351 
L 323.157191 200.10351 
L 324.152508 195.906401 
L 326.143144 195.906401 
L 327.138462 191.709291 
L 328.133779 195.906401 
L 329.129097 191.709291 
L 332.11505 191.709291 
L 333.110368 187.512182 
L 340.077592 187.512182 
L 341.07291 183.315072 
L 346.049498 183.315072 
L 347.044816 179.117963 
L 352.021405 179.117963 
L 353.016722 174.920853 
L 356.997993 174.920853 
L 357.993311 170.723744 
L 368.941806 170.723744 
L 369.937124 166.526635 
L 377.899666 166.526635 
L 378.894983 162.329525 
L 379.890301 166.526635 
L 380.885619 162.329525 
L 385.862207 162.329525 
L 386.857525 158.132416 
L 387.852843 162.329525 
L 388.848161 158.132416 
L 397.80602 158.132416 
L 398.801338 153.935306 
L 407.759197 153.935306 
L 408.754515 149.738197 
L 417.712375 149.738197 
L 418.707692 145.541087 
L 419.70301 149.738197 
L 420.698328 149.738197 
L 421.693645 145.541087 
L 430.651505 145.541087 
L 431.646823 141.343978 
L 432.64214 145.541087 
L 433.637458 145.541087 
L 434.632776 141.343978 
L 435.628094 145.541087 
L 436.623411 145.541087 
L 437.618729 141.343978 
L 445.581271 141.343978 
L 446.576589 137.146869 
L 447.571906 141.343978 
L 448.567224 141.343978 
L 449.562542 137.146869 
L 450.55786 137.146869 
L 451.553177 141.343978 
L 454.53913 141.343978 
L 455.534448 137.146869 
L 474.445485 137.146869 
L 475.440803 132.949759 
L 476.43612 137.146869 
L 477.431438 132.949759 
L 499.328428 132.949759 
L 500.323746 128.75265 
L 501.319064 128.75265 
L 502.314381 132.949759 
L 503.309699 132.949759 
L 504.305017 128.75265 
L 505.300334 128.75265 
L 506.295652 132.949759 
L 507.29097 128.75265 
L 524.211371 128.75265 
L 525.206689 124.55554 
L 526.202007 132.949759 
L 527.197324 137.146869 
L 528.192642 137.146869 
L 529.18796 145.541087 
L 531.178595 153.935306 
L 532.173913 162.329525 
L 533.169231 162.329525 
L 534.164548 170.723744 
L 535.159866 170.723744 
L 536.155184 179.117963 
L 538.145819 187.512182 
L 539.141137 187.512182 
L 540.136455 195.906401 
L 541.131773 195.906401 
L 551.08495 237.877495 
L 552.080268 237.877495 
L 557.056856 258.863042 
L 558.052174 258.863042 
L 559.047492 267.257261 
L 560.042809 267.257261 
L 561.038127 271.45437 
L 562.033445 271.45437 
L 567.010033 292.439917 
L 568.005351 292.439917 
L 571.986622 309.228355 
L 572.98194 309.228355 
L 574.972575 317.622574 
L 575.967893 317.622574 
L 576.963211 321.819683 
L 577.958528 321.819683 
L 580.944482 334.411012 
L 581.939799 334.411012 
L 582.935117 338.608121 
L 583.930435 338.608121 
L 585.92107 347.00234 
L 586.916388 347.00234 
L 588.907023 355.396559 
L 589.902341 355.396559 
L 590.897659 359.593668 
L 591.892977 359.593668 
L 592.888294 363.790778 
L 593.883612 363.790778 
L 594.87893 367.987887 
L 595.874247 367.987887 
L 596.869565 372.184997 
L 597.864883 372.184997 
L 598.860201 376.382106 
L 599.855518 376.382106 
L 600.850836 380.579215 
L 601.846154 380.579215 
L 603.836789 388.973434 
L 605.827425 388.973434 
L 606.822742 393.170544 
L 607.81806 393.170544 
L 608.813378 397.367653 
L 609.808696 397.367653 
L 611.799331 405.761872 
L 613.789967 405.761872 
L 614.785284 409.958981 
L 615.780602 409.958981 
L 616.77592 414.156091 
L 617.771237 414.156091 
L 618.766555 418.3532 
L 619.761873 418.3532 
L 620.757191 422.55031 
L 622.747826 422.55031 
L 623.743144 426.747419 
L 624.738462 426.747419 
L 625.733779 430.944529 
L 626.729097 430.944529 
L 627.724415 435.141638 
L 628.719732 435.141638 
L 629.71505 439.338747 
L 632.701003 439.338747 
L 634.691639 447.732966 
L 636.682274 447.732966 
L 637.677592 451.930076 
L 638.67291 451.930076 
L 639.668227 456.127185 
L 642.654181 456.127185 
L 643.649498 460.324295 
L 644.644816 460.324295 
L 645.640134 464.521404 
L 647.630769 464.521404 
L 648.626087 468.718513 
L 649.621405 468.718513 
L 650.616722 472.915623 
L 652.607358 472.915623 
L 653.602676 477.112732 
L 656.588629 477.112732 
L 657.583946 481.309842 
L 659.574582 481.309842 
L 660.5699 485.506951 
L 662.560535 485.506951 
L 663.555853 489.704061 
L 666.541806 489.704061 
L 667.537124 493.90117 
L 668.532441 493.90117 
L 669.527759 498.098279 
L 672.513712 498.098279 
L 673.50903 502.295389 
L 675.499666 502.295389 
L 676.494983 506.492498 
L 677.490301 506.492498 
L 678.485619 510.689608 
L 684.457525 510.689608 
L 685.452843 514.886717 
L 687.443478 514.886717 
L 688.438796 519.083827 
L 690.429431 519.083827 
L 691.424749 523.280936 
L 695.40602 523.280936 
L 696.401338 527.478045 
L 699.387291 527.478045 
L 700.382609 531.675155 
L 702.373244 531.675155 
L 703.368562 535.872264 
L 707.349833 535.872264 
L 708.345151 540.069374 
L 712.326421 540.069374 
L 713.321739 544.266483 
L 714.317057 540.069374 
L 715.312375 544.266483 
L 717.30301 544.266483 
L 718.298328 548.463593 
L 722.279599 548.463593 
L 723.274916 552.660702 
L 727.256187 552.660702 
L 728.251505 556.857811 
L 732.232776 556.857811 
L 733.228094 561.054921 
L 739.2 561.054921 
L 740.195318 565.25203 
L 744.176589 565.25203 
L 745.171906 569.44914 
L 749.153177 569.44914 
L 750.148495 573.646249 
L 751.143813 569.44914 
L 752.13913 573.646249 
L 755.125084 573.646249 
L 756.120401 577.843359 
L 766.073579 577.843359 
L 767.068896 582.040468 
L 774.03612 582.040468 
L 775.031438 586.237577 
L 780.008027 586.237577 
L 781.003344 590.434687 
L 789.961204 590.434687 
L 790.956522 594.631796 
L 800.909699 594.631796 
L 801.905017 598.828906 
L 809.867559 598.828906 
L 810.862876 603.026015 
L 811.858194 598.828906 
L 812.853512 603.026015 
L 823.802007 603.026015 
L 824.797324 607.223125 
L 833.755184 607.223125 
L 834.750502 611.420234 
L 850.675585 611.420234 
L 851.670903 615.617343 
L 867.595987 615.617343 
L 868.591304 619.814453 
L 869.586622 615.617343 
L 870.58194 619.814453 
L 886.507023 619.814453 
L 887.502341 624.011562 
L 908.404013 624.011562 
L 909.399331 628.208672 
L 910.394649 624.011562 
L 913.380602 624.011562 
L 914.37592 628.208672 
L 915.371237 628.208672 
L 916.366555 624.011562 
L 917.361873 628.208672 
L 937.268227 628.208672 
L 938.263545 632.405781 
L 939.258863 628.208672 
L 947.221405 628.208672 
L 948.216722 632.405781 
L 950.207358 632.405781 
L 951.202676 628.208672 
L 952.197993 632.405781 
L 979.071572 632.405781 
L 980.06689 636.602891 
L 981.062207 632.405781 
L 983.052843 632.405781 
L 984.048161 636.602891 
L 1035.804682 636.602891 
L 1036.8 640.8 
L 1036.8 640.8 
" clip-path="url(#p959116c147)" style="fill: none; stroke: #0000ff; stroke-width: 3; stroke-linecap: square"/>
    <defs>
     <path id="m6eef50ccaf" d="M 0 4 
C 1.060812 4 2.078319 3.578535 2.828427 2.828427 
C 3.578535 2.078319 4 1.060812 4 0 
C 4 -1.060812 3.578535 -2.078319 2.828427 -2.828427 
C 2.078319 -3.578535 1.060812 -4 0 -4 
C -1.060812 -4 -2.078319 -3.578535 -2.828427 -2.828427 
C -3.578535 -2.078319 -4 -1.060812 -4 0 
C -4 1.060812 -3.578535 2.078319 -2.828427 2.828427 
C -2.078319 3.578535 -1.060812 4 0 4 
z
" style="stroke: #0000ff"/>
    </defs>
    <g clip-path="url(#p959116c147)">
     <use xlink:href="#m6eef50ccaf" x="144" y="640.8" style="fill: #0000ff; stroke: #0000ff"/>
     <use xlink:href="#m6eef50ccaf" x="158.929766" y="561.054921" style="fill: #0000ff; stroke: #0000ff"/>
     <use xlink:href="#m6eef50ccaf" x="173.859532" y="498.098279" style="fill: #0000ff; stroke: #0000ff"/>
     <use xlink:href="#m6eef50ccaf" x="188.789298" y="443.535857" style="fill: #0000ff; stroke: #0000ff"/>
     <use xlink:href="#m6eef50ccaf" x="203.719064" y="393.170544" style="fill: #0000ff; stroke: #0000ff"/>
     <use xlink:href="#m6eef50ccaf" x="218.648829" y="355.396559" style="fill: #0000ff; stroke: #0000ff"/>
     <use xlink:href="#m6eef50ccaf" x="233.578595" y="321.819683" style="fill: #0000ff; stroke: #0000ff"/>
     <use xlink:href="#m6eef50ccaf" x="248.508361" y="292.439917" style="fill: #0000ff; stroke: #0000ff"/>
     <use xlink:href="#m6eef50ccaf" x="263.438127" y="267.257261" style="fill: #0000ff; stroke: #0000ff"/>
     <use xlink:href="#m6eef50ccaf" x="278.367893" y="246.271714" style="fill: #0000ff; stroke: #0000ff"/>
     <use xlink:href="#m6eef50ccaf" x="293.297659" y="229.483276" style="fill: #0000ff; stroke: #0000ff"/>
     <use xlink:href="#m6eef50ccaf" x="308.227425" y="212.694838" style="fill: #0000ff; stroke: #0000ff"/>
     <use xlink:href="#m6eef50ccaf" x="323.157191" y="200.10351" style="fill: #0000ff; stroke: #0000ff"/>
     <use xlink:href="#m6eef50ccaf" x="338.086957" y="187.512182" style="fill: #0000ff; stroke: #0000ff"/>
     <use xlink:href="#m6eef50ccaf" x="353.016722" y="174.920853" style="fill: #0000ff; stroke: #0000ff"/>
     <use xlink:href="#m6eef50ccaf" x="367.946488" y="170.723744" style="fill: #0000ff; stroke: #0000ff"/>
     <use xlink:href="#m6eef50ccaf" x="382.876254" y="162.329525" style="fill: #0000ff; stroke: #0000ff"/>
     <use xlink:href="#m6eef50ccaf" x="397.80602" y="158.132416" style="fill: #0000ff; stroke: #0000ff"/>
     <use xlink:href="#m6eef50ccaf" x="412.735786" y="149.738197" style="fill: #0000ff; stroke: #0000ff"/>
     <use xlink:href="#m6eef50ccaf" x="427.665552" y="145.541087" style="fill: #0000ff; stroke: #0000ff"/>
     <use xlink:href="#m6eef50ccaf" x="442.595318" y="141.343978" style="fill: #0000ff; stroke: #0000ff"/>
     <use xlink:href="#m6eef50ccaf" x="457.525084" y="137.146869" style="fill: #0000ff; stroke: #0000ff"/>
     <use xlink:href="#m6eef50ccaf" x="472.454849" y="137.146869" style="fill: #0000ff; stroke: #0000ff"/>
     <use xlink:href="#m6eef50ccaf" x="487.384615" y="132.949759" style="fill: #0000ff; stroke: #0000ff"/>
     <use xlink:href="#m6eef50ccaf" x="502.314381" y="132.949759" style="fill: #0000ff; stroke: #0000ff"/>
     <use xlink:href="#m6eef50ccaf" x="517.244147" y="128.75265" style="fill: #0000ff; stroke: #0000ff"/>
     <use xlink:href="#m6eef50ccaf" x="532.173913" y="162.329525" style="fill: #0000ff; stroke: #0000ff"/>
     <use xlink:href="#m6eef50ccaf" x="547.103679" y="221.089057" style="fill: #0000ff; stroke: #0000ff"/>
     <use xlink:href="#m6eef50ccaf" x="562.033445" y="271.45437" style="fill: #0000ff; stroke: #0000ff"/>
     <use xlink:href="#m6eef50ccaf" x="576.963211" y="321.819683" style="fill: #0000ff; stroke: #0000ff"/>
     <use xlink:href="#m6eef50ccaf" x="591.892977" y="359.593668" style="fill: #0000ff; stroke: #0000ff"/>
     <use xlink:href="#m6eef50ccaf" x="606.822742" y="393.170544" style="fill: #0000ff; stroke: #0000ff"/>
     <use xlink:href="#m6eef50ccaf" x="621.752508" y="422.55031" style="fill: #0000ff; stroke: #0000ff"/>
     <use xlink:href="#m6eef50ccaf" x="636.682274" y="447.732966" style="fill: #0000ff; stroke: #0000ff"/>
     <use xlink:href="#m6eef50ccaf" x="651.61204" y="472.915623" style="fill: #0000ff; stroke: #0000ff"/>
     <use xlink:href="#m6eef50ccaf" x="666.541806" y="489.704061" style="fill: #0000ff; stroke: #0000ff"/>
     <use xlink:href="#m6eef50ccaf" x="681.471572" y="510.689608" style="fill: #0000ff; stroke: #0000ff"/>
     <use xlink:href="#m6eef50ccaf" x="696.401338" y="527.478045" style="fill: #0000ff; stroke: #0000ff"/>
     <use xlink:href="#m6eef50ccaf" x="711.331104" y="540.069374" style="fill: #0000ff; stroke: #0000ff"/>
     <use xlink:href="#m6eef50ccaf" x="726.26087" y="552.660702" style="fill: #0000ff; stroke: #0000ff"/>
     <use xlink:href="#m6eef50ccaf" x="741.190635" y="565.25203" style="fill: #0000ff; stroke: #0000ff"/>
     <use xlink:href="#m6eef50ccaf" x="756.120401" y="577.843359" style="fill: #0000ff; stroke: #0000ff"/>
     <use xlink:href="#m6eef50ccaf" x="771.050167" y="582.040468" style="fill: #0000ff; stroke: #0000ff"/>
     <use xlink:href="#m6eef50ccaf" x="785.979933" y="590.434687" style="fill: #0000ff; stroke: #0000ff"/>
     <use xlink:href="#m6eef50ccaf" x="800.909699" y="594.631796" style="fill: #0000ff; stroke: #0000ff"/>
     <use xlink:href="#m6eef50ccaf" x="815.839465" y="603.026015" style="fill: #0000ff; stroke: #0000ff"/>
     <use xlink:href="#m6eef50ccaf" x="830.769231" y="607.223125" style="fill: #0000ff; stroke: #0000ff"/>
     <use xlink:href="#m6eef50ccaf" x="845.698997" y="611.420234" style="fill: #0000ff; stroke: #0000ff"/>
     <use xlink:href="#m6eef50ccaf" x="860.628763" y="615.617343" style="fill: #0000ff; stroke: #0000ff"/>
     <use xlink:href="#m6eef50ccaf" x="875.558528" y="619.814453" style="fill: #0000ff; stroke: #0000ff"/>
     <use xlink:href="#m6eef50ccaf" x="890.488294" y="624.011562" style="fill: #0000ff; stroke: #0000ff"/>
     <use xlink:href="#m6eef50ccaf" x="905.41806" y="624.011562" style="fill: #0000ff; stroke: #0000ff"/>
     <use xlink:href="#m6eef50ccaf" x="920.347826" y="628.208672" style="fill: #0000ff; stroke: #0000ff"/>
     <use xlink:href="#m6eef50ccaf" x="935.277592" y="628.208672" style="fill: #0000ff; stroke: #0000ff"/>
     <use xlink:href="#m6eef50ccaf" x="950.207358" y="632.405781" style="fill: #0000ff; stroke: #0000ff"/>
     <use xlink:href="#m6eef50ccaf" x="965.137124" y="632.405781" style="fill: #0000ff; stroke: #0000ff"/>
     <use xlink:href="#m6eef50ccaf" x="980.06689" y="636.602891" style="fill: #0000ff; stroke: #0000ff"/>
     <use xlink:href="#m6eef50ccaf" x="994.996656" y="636.602891" style="fill: #0000ff; stroke: #0000ff"/>
     <use xlink:href="#m6eef50ccaf" x="1009.926421" y="636.602891" style="fill: #0000ff; stroke: #0000ff"/>
     <use xlink:href="#m6eef50ccaf" x="1024.856187" y="636.602891" style="fill: #0000ff; stroke: #0000ff"/>
    </g>
   </g>
   <g id="patch_3">
    <path d="M 144 640.8 
L 144 86.4 
" style="fill: none; stroke: #000000; stroke-width: 0.8; stroke-linejoin: miter; stroke-linecap: square"/>
   </g>
   <g id="patch_4">
    <path d="M 1036.8 640.8 
L 1036.8 86.4 
" style="fill: none; stroke: #000000; stroke-width: 0.8; stroke-linejoin: miter; stroke-linecap: square"/>
   </g>
   <g id="patch_5">
    <path d="M 144 640.8 
L 1036.8 640.8 
" style="fill: none; stroke: #000000; stroke-width: 0.8; stroke-linejoin: miter; stroke-linecap: square"/>
   </g>
   <g id="patch_6">
    <path d="M 144 86.4 
L 1036.8 86.4 
" style="fill: none; stroke: #000000; stroke-width: 0.8; stroke-linejoin: miter; stroke-linecap: square"/>
   </g>
   <g id="text_15">
    <!-- Время заряда: 5.1322 -->
    <g transform="translate(768.96 228.224143) scale(0.16 -0.16)">
     <defs>
      <path id="DejaVuSans-437" d="M 2206 1888 
Q 2594 1813 2809 1584 
Q 3025 1356 3025 1019 
Q 3025 478 2622 193 
Q 2219 -91 1475 -91 
Q 1225 -91 961 -47 
Q 697 -3 416 84 
L 416 619 
Q 638 503 903 445 
Q 1169 388 1459 388 
Q 1931 388 2195 563 
Q 2459 738 2459 1019 
Q 2459 1294 2225 1461 
Q 1991 1628 1563 1628 
L 1100 1628 
L 1100 2103 
L 1584 2103 
Q 1947 2103 2158 2242 
Q 2369 2381 2369 2600 
Q 2369 2800 2151 2944 
Q 1934 3088 1563 3088 
Q 1341 3088 1089 3047 
Q 838 3006 534 2916 
L 534 3438 
Q 841 3513 1106 3550 
Q 1372 3588 1609 3588 
Q 2222 3588 2576 3342 
Q 2931 3097 2931 2656 
Q 2931 2366 2743 2164 
Q 2556 1963 2206 1888 
z
" transform="scale(0.015625)"/>
      <path id="DejaVuSans-434" d="M 1384 459 
L 3053 459 
L 3053 3041 
L 1844 3041 
L 1844 2603 
Q 1844 1316 1475 628 
L 1384 459 
z
M 550 459 
Q 834 584 959 850 
Q 1266 1509 1266 2838 
L 1266 3500 
L 3631 3500 
L 3631 459 
L 4091 459 
L 4091 -884 
L 3631 -884 
L 3631 0 
L 794 0 
L 794 -884 
L 334 -884 
L 334 459 
L 550 459 
z
" transform="scale(0.015625)"/>
      <path id="DejaVuSans-3a" d="M 750 794 
L 1409 794 
L 1409 0 
L 750 0 
L 750 794 
z
M 750 3309 
L 1409 3309 
L 1409 2516 
L 750 2516 
L 750 3309 
z
" transform="scale(0.015625)"/>
      <path id="DejaVuSans-33" d="M 2597 2516 
Q 3050 2419 3304 2112 
Q 3559 1806 3559 1356 
Q 3559 666 3084 287 
Q 2609 -91 1734 -91 
Q 1441 -91 1130 -33 
Q 819 25 488 141 
L 488 750 
Q 750 597 1062 519 
Q 1375 441 1716 441 
Q 2309 441 2620 675 
Q 2931 909 2931 1356 
Q 2931 1769 2642 2001 
Q 2353 2234 1838 2234 
L 1294 2234 
L 1294 2753 
L 1863 2753 
Q 2328 2753 2575 2939 
Q 2822 3125 2822 3475 
Q 2822 3834 2567 4026 
Q 2313 4219 1838 4219 
Q 1578 4219 1281 4162 
Q 984 4106 628 3988 
L 628 4550 
Q 988 4650 1302 4700 
Q 1616 4750 1894 4750 
Q 2613 4750 3031 4423 
Q 3450 4097 3450 3541 
Q 3450 3153 3228 2886 
Q 3006 2619 2597 2516 
z
" transform="scale(0.015625)"/>
     </defs>
     <use xlink:href="#DejaVuSans-412"/>
     <use xlink:href="#DejaVuSans-440" x="68.603516"/>
     <use xlink:href="#DejaVuSans-435" x="132.080078"/>
     <use xlink:href="#DejaVuSans-43c" x="193.603516"/>
     <use xlink:href="#DejaVuSans-44f" x="269.042969"/>
     <use xlink:href="#DejaVuSans-20" x="329.199219"/>
     <use xlink:href="#DejaVuSans-437" x="360.986328"/>
     <use xlink:href="#DejaVuSans-430" x="414.160156"/>
     <use xlink:href="#DejaVuSans-440" x="475.439453"/>
     <use xlink:href="#DejaVuSans-44f" x="538.916016"/>
     <use xlink:href="#DejaVuSans-434" x="599.072266"/>
     <use xlink:href="#DejaVuSans-430" x="668.212891"/>
     <use xlink:href="#DejaVuSans-3a" x="729.492188"/>
     <use xlink:href="#DejaVuSans-20" x="763.183594"/>
     <use xlink:href="#DejaVuSans-35" x="794.970703"/>
     <use xlink:href="#DejaVuSans-2e" x="858.59375"/>
     <use xlink:href="#DejaVuSans-31" x="890.380859"/>
     <use xlink:href="#DejaVuSans-33" x="954.003906"/>
     <use xlink:href="#DejaVuSans-32" x="1017.626953"/>
     <use xlink:href="#DejaVuSans-32" x="1081.25"/>
    </g>
   </g>
   <g id="text_16">
    <!-- Время разряда: 6.8876 -->
    <g transform="translate(768.96 280.058445) scale(0.16 -0.16)">
     <defs>
      <path id="DejaVuSans-37" d="M 525 4666 
L 3525 4666 
L 3525 4397 
L 1831 0 
L 1172 0 
L 2766 4134 
L 525 4134 
L 525 4666 
z
" transform="scale(0.015625)"/>
     </defs>
     <use xlink:href="#DejaVuSans-412"/>
     <use xlink:href="#DejaVuSans-440" x="68.603516"/>
     <use xlink:href="#DejaVuSans-435" x="132.080078"/>
     <use xlink:href="#DejaVuSans-43c" x="193.603516"/>
     <use xlink:href="#DejaVuSans-44f" x="269.042969"/>
     <use xlink:href="#DejaVuSans-20" x="329.199219"/>
     <use xlink:href="#DejaVuSans-440" x="360.986328"/>
     <use xlink:href="#DejaVuSans-430" x="424.462891"/>
     <use xlink:href="#DejaVuSans-437" x="485.742188"/>
     <use xlink:href="#DejaVuSans-440" x="538.916016"/>
     <use xlink:href="#DejaVuSans-44f" x="602.392578"/>
     <use xlink:href="#DejaVuSans-434" x="662.548828"/>
     <use xlink:href="#DejaVuSans-430" x="731.689453"/>
     <use xlink:href="#DejaVuSans-3a" x="792.96875"/>
     <use xlink:href="#DejaVuSans-20" x="826.660156"/>
     <use xlink:href="#DejaVuSans-36" x="858.447266"/>
     <use xlink:href="#DejaVuSans-2e" x="922.070312"/>
     <use xlink:href="#DejaVuSans-38" x="953.857422"/>
     <use xlink:href="#DejaVuSans-38" x="1017.480469"/>
     <use xlink:href="#DejaVuSans-37" x="1081.103516"/>
     <use xlink:href="#DejaVuSans-36" x="1144.726562"/>
    </g>
   </g>
   <g id="text_17">
    <!-- График зарядки и разрядки RC-цепи -->
    <g transform="translate(395.617188 80.4) scale(0.2 -0.2)">
     <defs>
      <path id="DejaVuSans-413" d="M 628 0 
L 628 4666 
L 3531 4666 
L 3531 4134 
L 1259 4134 
L 1259 0 
L 628 0 
z
" transform="scale(0.015625)"/>
      <path id="DejaVuSans-444" d="M 947 1747 
Q 947 1013 1173 702 
Q 1400 391 1784 391 
Q 2091 391 2447 916 
L 2447 2578 
Q 2091 3103 1784 3103 
Q 1400 3103 1173 2792 
Q 947 2481 947 1747 
z
M 2447 -1331 
L 2447 447 
Q 2269 153 2064 31 
Q 1859 -91 1600 -91 
Q 1078 -91 714 392 
Q 350 875 350 1734 
Q 350 2594 714 3089 
Q 1078 3584 1600 3584 
Q 1859 3584 2064 3465 
Q 2269 3347 2447 3053 
L 2447 4666 
L 3025 4666 
L 3025 3053 
Q 3203 3347 3408 3465 
Q 3613 3584 3872 3584 
Q 4394 3584 4758 3089 
Q 5122 2594 5122 1734 
Q 5122 875 4758 392 
Q 4394 -91 3872 -91 
Q 3613 -91 3408 31 
Q 3203 153 3025 447 
L 3025 -1331 
L 2447 -1331 
z
M 4525 1747 
Q 4525 2481 4298 2792 
Q 4072 3103 3688 3103 
Q 3381 3103 3025 2578 
L 3025 916 
Q 3381 391 3688 391 
Q 4072 391 4298 702 
Q 4525 1013 4525 1747 
z
" transform="scale(0.015625)"/>
      <path id="DejaVuSans-43a" d="M 581 3500 
L 1153 3500 
L 1153 1856 
L 2775 3500 
L 3481 3500 
L 2144 2147 
L 3653 0 
L 3009 0 
L 1769 1766 
L 1153 1141 
L 1153 0 
L 581 0 
L 581 3500 
z
" transform="scale(0.015625)"/>
      <path id="DejaVuSans-52" d="M 2841 2188 
Q 3044 2119 3236 1894 
Q 3428 1669 3622 1275 
L 4263 0 
L 3584 0 
L 2988 1197 
Q 2756 1666 2539 1819 
Q 2322 1972 1947 1972 
L 1259 1972 
L 1259 0 
L 628 0 
L 628 4666 
L 2053 4666 
Q 2853 4666 3247 4331 
Q 3641 3997 3641 3322 
Q 3641 2881 3436 2590 
Q 3231 2300 2841 2188 
z
M 1259 4147 
L 1259 2491 
L 2053 2491 
Q 2509 2491 2742 2702 
Q 2975 2913 2975 3322 
Q 2975 3731 2742 3939 
Q 2509 4147 2053 4147 
L 1259 4147 
z
" transform="scale(0.015625)"/>
      <path id="DejaVuSans-43" d="M 4122 4306 
L 4122 3641 
Q 3803 3938 3442 4084 
Q 3081 4231 2675 4231 
Q 1875 4231 1450 3742 
Q 1025 3253 1025 2328 
Q 1025 1406 1450 917 
Q 1875 428 2675 428 
Q 3081 428 3442 575 
Q 3803 722 4122 1019 
L 4122 359 
Q 3791 134 3420 21 
Q 3050 -91 2638 -91 
Q 1578 -91 968 557 
Q 359 1206 359 2328 
Q 359 3453 968 4101 
Q 1578 4750 2638 4750 
Q 3056 4750 3426 4639 
Q 3797 4528 4122 4306 
z
" transform="scale(0.015625)"/>
      <path id="DejaVuSans-2d" d="M 313 2009 
L 1997 2009 
L 1997 1497 
L 313 1497 
L 313 2009 
z
" transform="scale(0.015625)"/>
      <path id="DejaVuSans-446" d="M 3603 0 
L 581 0 
L 581 3500 
L 1159 3500 
L 1159 459 
L 3025 459 
L 3025 3500 
L 3603 3500 
L 3603 459 
L 4063 459 
L 4063 -884 
L 3603 -884 
L 3603 0 
z
" transform="scale(0.015625)"/>
     </defs>
     <use xlink:href="#DejaVuSans-413"/>
     <use xlink:href="#DejaVuSans-440" x="60.986328"/>
     <use xlink:href="#DejaVuSans-430" x="124.462891"/>
     <use xlink:href="#DejaVuSans-444" x="185.742188"/>
     <use xlink:href="#DejaVuSans-438" x="271.240234"/>
     <use xlink:href="#DejaVuSans-43a" x="336.230469"/>
     <use xlink:href="#DejaVuSans-20" x="396.630859"/>
     <use xlink:href="#DejaVuSans-437" x="428.417969"/>
     <use xlink:href="#DejaVuSans-430" x="481.591797"/>
     <use xlink:href="#DejaVuSans-440" x="542.871094"/>
     <use xlink:href="#DejaVuSans-44f" x="606.347656"/>
     <use xlink:href="#DejaVuSans-434" x="666.503906"/>
     <use xlink:href="#DejaVuSans-43a" x="735.644531"/>
     <use xlink:href="#DejaVuSans-438" x="796.044922"/>
     <use xlink:href="#DejaVuSans-20" x="861.035156"/>
     <use xlink:href="#DejaVuSans-438" x="892.822266"/>
     <use xlink:href="#DejaVuSans-20" x="957.8125"/>
     <use xlink:href="#DejaVuSans-440" x="989.599609"/>
     <use xlink:href="#DejaVuSans-430" x="1053.076172"/>
     <use xlink:href="#DejaVuSans-437" x="1114.355469"/>
     <use xlink:href="#DejaVuSans-440" x="1167.529297"/>
     <use xlink:href="#DejaVuSans-44f" x="1231.005859"/>
     <use xlink:href="#DejaVuSans-434" x="1291.162109"/>
     <use xlink:href="#DejaVuSans-43a" x="1360.302734"/>
     <use xlink:href="#DejaVuSans-438" x="1420.703125"/>
     <use xlink:href="#DejaVuSans-20" x="1485.693359"/>
     <use xlink:href="#DejaVuSans-52" x="1517.480469"/>
     <use xlink:href="#DejaVuSans-43" x="1581.962891"/>
     <use xlink:href="#DejaVuSans-2d" x="1651.787109"/>
     <use xlink:href="#DejaVuSans-446" x="1687.871094"/>
     <use xlink:href="#DejaVuSans-435" x="1755.9375"/>
     <use xlink:href="#DejaVuSans-43f" x="1817.460938"/>
     <use xlink:href="#DejaVuSans-438" x="1882.841797"/>
    </g>
   </g>
   <g id="legend_1">
    <g id="patch_7">
     <path d="M 921.671875 131.75625 
L 1022.8 131.75625 
Q 1026.8 131.75625 1026.8 127.75625 
L 1026.8 100.4 
Q 1026.8 96.4 1022.8 96.4 
L 921.671875 96.4 
Q 917.671875 96.4 917.671875 100.4 
L 917.671875 127.75625 
Q 917.671875 131.75625 921.671875 131.75625 
z
" style="fill: #ffffff; opacity: 0.8; stroke: #cccccc; stroke-linejoin: miter"/>
    </g>
    <g id="line2d_74">
     <path d="M 925.671875 112.596875 
L 945.671875 112.596875 
L 965.671875 112.596875 
" style="fill: none; stroke: #0000ff; stroke-width: 3; stroke-linecap: square"/>
     <g>
      <use xlink:href="#m6eef50ccaf" x="945.671875" y="112.596875" style="fill: #0000ff; stroke: #0000ff"/>
     </g>
    </g>
    <g id="text_18">
     <!-- V(t) -->
     <g transform="translate(981.671875 119.596875) scale(0.2 -0.2)">
      <defs>
       <path id="DejaVuSans-56" d="M 1831 0 
L 50 4666 
L 709 4666 
L 2188 738 
L 3669 4666 
L 4325 4666 
L 2547 0 
L 1831 0 
z
" transform="scale(0.015625)"/>
       <path id="DejaVuSans-28" d="M 1984 4856 
Q 1566 4138 1362 3434 
Q 1159 2731 1159 2009 
Q 1159 1288 1364 580 
Q 1569 -128 1984 -844 
L 1484 -844 
Q 1016 -109 783 600 
Q 550 1309 550 2009 
Q 550 2706 781 3412 
Q 1013 4119 1484 4856 
L 1984 4856 
z
" transform="scale(0.015625)"/>
       <path id="DejaVuSans-74" d="M 1172 4494 
L 1172 3500 
L 2356 3500 
L 2356 3053 
L 1172 3053 
L 1172 1153 
Q 1172 725 1289 603 
Q 1406 481 1766 481 
L 2356 481 
L 2356 0 
L 1766 0 
Q 1100 0 847 248 
Q 594 497 594 1153 
L 594 3053 
L 172 3053 
L 172 3500 
L 594 3500 
L 594 4494 
L 1172 4494 
z
" transform="scale(0.015625)"/>
       <path id="DejaVuSans-29" d="M 513 4856 
L 1013 4856 
Q 1481 4119 1714 3412 
Q 1947 2706 1947 2009 
Q 1947 1309 1714 600 
Q 1481 -109 1013 -844 
L 513 -844 
Q 928 -128 1133 580 
Q 1338 1288 1338 2009 
Q 1338 2731 1133 3434 
Q 928 4138 513 4856 
z
" transform="scale(0.015625)"/>
      </defs>
      <use xlink:href="#DejaVuSans-56"/>
      <use xlink:href="#DejaVuSans-28" x="68.408203"/>
      <use xlink:href="#DejaVuSans-74" x="107.421875"/>
      <use xlink:href="#DejaVuSans-29" x="146.630859"/>
     </g>
    </g>
   </g>
  </g>
 </g>
 <defs>
  <clipPath id="p959116c147">
   <rect x="144" y="86.4" width="892.8" height="554.4"/>
  </clipPath>
 </defs>
</svg>
